<?xml version="1.0" encoding="UTF-8" standalone="no"?>
<!DOCTYPE svg PUBLIC "-//W3C//DTD SVG 1.1//EN"
 "http://www.w3.org/Graphics/SVG/1.1/DTD/svg11.dtd">
<!-- Generated by graphviz version 2.47.0 (20210316.0004)
 -->
<!-- Title: dependencies Pages: 1 -->
<svg width="1360pt" height="287pt"
 viewBox="0.00 0.00 1360.00 287.00" xmlns="http://www.w3.org/2000/svg" xmlns:xlink="http://www.w3.org/1999/xlink">
<g id="graph0" class="graph" transform="scale(1 1) rotate(0) translate(4 283)">
<title>dependencies</title>
<polygon fill="white" stroke="transparent" points="-4,4 -4,-283 1356,-283 1356,4 -4,4"/>
<text text-anchor="start" x="655.01" y="-42.4" font-family="Times-12" font-weight="bold" font-size="14.00">Legend</text>
<polygon fill="#ffffb3" stroke="transparent" points="442,-10 442,-30 462,-30 462,-10 442,-10"/>
<text text-anchor="start" x="465.63" y="-15.4" font-family="Times-12" font-size="14.00"> &#160;Declarations</text>
<polygon fill="#8dd3c7" stroke="transparent" points="555,-10 555,-30 575,-30 575,-10 555,-10"/>
<text text-anchor="start" x="578.73" y="-15.4" font-family="Times-12" font-size="14.00"> &#160;Module</text>
<polygon fill="#80b1d3" stroke="transparent" points="641,-10 641,-30 661,-30 661,-10 641,-10"/>
<text text-anchor="start" x="664.78" y="-15.4" font-family="Times-12" font-size="14.00"> &#160;Bootstrap</text>
<polygon fill="#fdb462" stroke="transparent" points="738,-10 738,-30 758,-30 758,-10 738,-10"/>
<text text-anchor="start" x="761.67" y="-15.4" font-family="Times-12" font-size="14.00"> &#160;Providers</text>
<polygon fill="#fb8072" stroke="transparent" points="834,-10 834,-30 854,-30 854,-10 834,-10"/>
<text text-anchor="start" x="857.73" y="-15.4" font-family="Times-12" font-size="14.00"> &#160;Exports</text>
<g id="clust1" class="cluster">
<title>cluster_AppModule</title>
<polygon fill="none" stroke="black" stroke-dasharray="1,5" points="168,-70 168,-271 790,-271 790,-70 168,-70"/>
</g>
<g id="clust3" class="cluster">
<title>cluster_AppModule_imports</title>
<polygon fill="none" stroke="black" points="314,-78 314,-206 782,-206 782,-78 314,-78"/>
</g>
<g id="clust6" class="cluster">
<title>cluster_AppModule_providers</title>
<polygon fill="none" stroke="black" points="176,-154 176,-206 306,-206 306,-154 176,-154"/>
</g>
<g id="clust7" class="cluster">
<title>cluster_AuthModule</title>
<polygon fill="none" stroke="black" stroke-dasharray="1,5" points="798,-146 798,-214 1062,-214 1062,-146 798,-146"/>
</g>
<g id="clust10" class="cluster">
<title>cluster_AuthModule_exports</title>
<polygon fill="none" stroke="black" points="948,-154 948,-206 1054,-206 1054,-154 948,-154"/>
</g>
<g id="clust12" class="cluster">
<title>cluster_AuthModule_providers</title>
<polygon fill="none" stroke="black" points="806,-154 806,-206 940,-206 940,-154 806,-154"/>
</g>
<g id="clust19" class="cluster">
<title>cluster_PostsModule</title>
<polygon fill="none" stroke="black" stroke-dasharray="1,5" points="8,-70 8,-138 160,-138 160,-70 8,-70"/>
</g>
<g id="clust24" class="cluster">
<title>cluster_PostsModule_providers</title>
<polygon fill="none" stroke="black" points="16,-78 16,-130 152,-130 152,-78 16,-78"/>
</g>
<g id="clust31" class="cluster">
<title>cluster_UsersModule</title>
<polygon fill="none" stroke="black" stroke-dasharray="1,5" points="1070,-146 1070,-214 1344,-214 1344,-146 1070,-146"/>
</g>
<g id="clust34" class="cluster">
<title>cluster_UsersModule_exports</title>
<polygon fill="none" stroke="black" points="1226,-154 1226,-206 1336,-206 1336,-154 1226,-154"/>
</g>
<g id="clust36" class="cluster">
<title>cluster_UsersModule_providers</title>
<polygon fill="none" stroke="black" points="1078,-154 1078,-206 1218,-206 1218,-154 1078,-154"/>
</g>
<!-- AuthModule -->
<g id="node1" class="node">
<title>AuthModule</title>
<polygon fill="#8dd3c7" stroke="black" points="664.55,-122 661.55,-126 640.55,-126 637.55,-122 577.45,-122 577.45,-86 664.55,-86 664.55,-122"/>
<text text-anchor="middle" x="621" y="-99.8" font-family="Times,serif" font-size="14.00">AuthModule</text>
</g>
<!-- AppModule -->
<g id="node6" class="node">
<title>AppModule</title>
<polygon fill="#8dd3c7" stroke="black" points="547.66,-263 544.66,-267 523.66,-267 520.66,-263 464.34,-263 464.34,-227 547.66,-227 547.66,-263"/>
<text text-anchor="middle" x="506" y="-240.8" font-family="Times,serif" font-size="14.00">AppModule</text>
</g>
<!-- AuthModule&#45;&gt;AppModule -->
<g id="edge1" class="edge">
<title>AuthModule&#45;&gt;AppModule</title>
<path fill="none" stroke="black" d="M621,-122.21C621,-159.06 621,-239 621,-239 621,-239 557.84,-239 557.84,-239"/>
<polygon fill="black" stroke="black" points="557.84,-235.5 547.84,-239 557.84,-242.5 557.84,-235.5"/>
</g>
<!-- AuthService  -->
<g id="node8" class="node">
<title>AuthService </title>
<polygon fill="#fb8072" stroke="black" points="1045.98,-198 956.02,-198 956.02,-162 1045.98,-162 1045.98,-198"/>
<text text-anchor="middle" x="1001" y="-175.8" font-family="Times,serif" font-size="14.00">AuthService </text>
</g>
<!-- AuthModule&#45;&gt;AuthService  -->
<g id="edge7" class="edge">
<title>AuthModule&#45;&gt;AuthService </title>
<path fill="none" stroke="black" stroke-dasharray="5,2" d="M599.11,-122.11C599.11,-131.9 599.11,-142 599.11,-142 599.11,-142 1001,-142 1001,-142 1001,-142 1001,-151.89 1001,-151.89"/>
<polygon fill="black" stroke="black" points="997.5,-151.89 1001,-161.89 1004.5,-151.89 997.5,-151.89"/>
</g>
<!-- MetaOptionsModule -->
<g id="node2" class="node">
<title>MetaOptionsModule</title>
<polygon fill="#8dd3c7" stroke="black" points="454.15,-122 451.15,-126 430.15,-126 427.15,-122 321.85,-122 321.85,-86 454.15,-86 454.15,-122"/>
<text text-anchor="middle" x="388" y="-99.8" font-family="Times,serif" font-size="14.00">MetaOptionsModule</text>
</g>
<!-- MetaOptionsModule&#45;&gt;AppModule -->
<g id="edge2" class="edge">
<title>MetaOptionsModule&#45;&gt;AppModule</title>
<path fill="none" stroke="black" d="M354.56,-122.21C354.56,-159.06 354.56,-239 354.56,-239 354.56,-239 454.22,-239 454.22,-239"/>
<polygon fill="black" stroke="black" points="454.22,-242.5 464.22,-239 454.22,-235.5 454.22,-242.5"/>
</g>
<!-- PostsModule -->
<g id="node3" class="node">
<title>PostsModule</title>
<polygon fill="#8dd3c7" stroke="black" points="476.61,-198 473.61,-202 452.61,-202 449.61,-198 387.39,-198 387.39,-162 476.61,-162 476.61,-198"/>
<text text-anchor="middle" x="432" y="-175.8" font-family="Times,serif" font-size="14.00">PostsModule</text>
</g>
<!-- PostsModule&#45;&gt;AppModule -->
<g id="edge3" class="edge">
<title>PostsModule&#45;&gt;AppModule</title>
<path fill="none" stroke="black" d="M470.36,-198.11C470.36,-198.11 470.36,-216.99 470.36,-216.99"/>
<polygon fill="black" stroke="black" points="466.86,-216.99 470.36,-226.99 473.86,-216.99 466.86,-216.99"/>
</g>
<!-- TagsModule -->
<g id="node4" class="node">
<title>TagsModule</title>
<polygon fill="#8dd3c7" stroke="black" points="559.26,-122 556.26,-126 535.26,-126 532.26,-122 472.74,-122 472.74,-86 559.26,-86 559.26,-122"/>
<text text-anchor="middle" x="516" y="-99.8" font-family="Times,serif" font-size="14.00">TagsModule</text>
</g>
<!-- TagsModule&#45;&gt;AppModule -->
<g id="edge4" class="edge">
<title>TagsModule&#45;&gt;AppModule</title>
<path fill="none" stroke="black" d="M512.19,-122.14C512.19,-122.14 512.19,-216.93 512.19,-216.93"/>
<polygon fill="black" stroke="black" points="508.69,-216.92 512.19,-226.93 515.69,-216.93 508.69,-216.92"/>
</g>
<!-- UsersModule -->
<g id="node5" class="node">
<title>UsersModule</title>
<polygon fill="#8dd3c7" stroke="black" points="773.92,-122 770.92,-126 749.92,-126 746.92,-122 682.08,-122 682.08,-86 773.92,-86 773.92,-122"/>
<text text-anchor="middle" x="728" y="-99.8" font-family="Times,serif" font-size="14.00">UsersModule</text>
</g>
<!-- UsersModule&#45;&gt;PostsModule -->
<g id="edge9" class="edge">
<title>UsersModule&#45;&gt;PostsModule</title>
<path fill="none" stroke="black" d="M712.76,-122.03C712.76,-142.77 712.76,-174 712.76,-174 712.76,-174 486.8,-174 486.8,-174"/>
<polygon fill="black" stroke="black" points="486.8,-170.5 476.8,-174 486.8,-177.5 486.8,-170.5"/>
</g>
<!-- UsersModule&#45;&gt;AppModule -->
<g id="edge5" class="edge">
<title>UsersModule&#45;&gt;AppModule</title>
<path fill="none" stroke="black" d="M743.24,-122.03C743.24,-161.28 743.24,-251 743.24,-251 743.24,-251 557.87,-251 557.87,-251"/>
<polygon fill="black" stroke="black" points="557.87,-247.5 547.87,-251 557.87,-254.5 557.87,-247.5"/>
</g>
<!-- UsersService  -->
<g id="node11" class="node">
<title>UsersService </title>
<polygon fill="#fb8072" stroke="black" points="1327.85,-198 1234.15,-198 1234.15,-162 1327.85,-162 1327.85,-198"/>
<text text-anchor="middle" x="1281" y="-175.8" font-family="Times,serif" font-size="14.00">UsersService </text>
</g>
<!-- UsersModule&#45;&gt;UsersService  -->
<g id="edge11" class="edge">
<title>UsersModule&#45;&gt;UsersService </title>
<path fill="none" stroke="black" stroke-dasharray="5,2" d="M773.72,-98C906.22,-98 1281,-98 1281,-98 1281,-98 1281,-151.8 1281,-151.8"/>
<polygon fill="black" stroke="black" points="1277.5,-151.8 1281,-161.8 1284.5,-151.8 1277.5,-151.8"/>
</g>
<!-- AppService -->
<g id="node7" class="node">
<title>AppService</title>
<ellipse fill="#fdb462" stroke="black" cx="241" cy="-180" rx="56.74" ry="18"/>
<text text-anchor="middle" x="241" y="-175.8" font-family="Times,serif" font-size="14.00">AppService</text>
</g>
<!-- AppService&#45;&gt;AppModule -->
<g id="edge6" class="edge">
<title>AppService&#45;&gt;AppModule</title>
<path fill="none" stroke="black" d="M241,-198.28C241,-219.32 241,-251 241,-251 241,-251 454.3,-251 454.3,-251"/>
<polygon fill="black" stroke="black" points="454.3,-254.5 464.3,-251 454.3,-247.5 454.3,-254.5"/>
</g>
<!-- AuthService -->
<g id="node9" class="node">
<title>AuthService</title>
<ellipse fill="#fdb462" stroke="black" cx="873" cy="-180" rx="59.11" ry="18"/>
<text text-anchor="middle" x="873" y="-175.8" font-family="Times,serif" font-size="14.00">AuthService</text>
</g>
<!-- AuthService&#45;&gt;AuthModule -->
<g id="edge8" class="edge">
<title>AuthService&#45;&gt;AuthModule</title>
<path fill="none" stroke="black" d="M817,-186C748.89,-186 642.89,-186 642.89,-186 642.89,-186 642.89,-132.2 642.89,-132.2"/>
<polygon fill="black" stroke="black" points="646.39,-132.2 642.89,-122.2 639.39,-132.2 646.39,-132.2"/>
</g>
<!-- PostsService -->
<g id="node10" class="node">
<title>PostsService</title>
<ellipse fill="#fdb462" stroke="black" cx="84" cy="-104" rx="60.27" ry="18"/>
<text text-anchor="middle" x="84" y="-99.8" font-family="Times,serif" font-size="14.00">PostsService</text>
</g>
<!-- PostsService&#45;&gt;PostsModule -->
<g id="edge10" class="edge">
<title>PostsService&#45;&gt;PostsModule</title>
<path fill="none" stroke="black" d="M144.47,-104C211.31,-104 309.65,-104 309.65,-104 309.65,-104 309.65,-180 309.65,-180 309.65,-180 377.14,-180 377.14,-180"/>
<polygon fill="black" stroke="black" points="377.14,-183.5 387.14,-180 377.14,-176.5 377.14,-183.5"/>
</g>
<!-- UsersService -->
<g id="node12" class="node">
<title>UsersService</title>
<ellipse fill="#fdb462" stroke="black" cx="1148" cy="-180" rx="61.95" ry="18"/>
<text text-anchor="middle" x="1148" y="-175.8" font-family="Times,serif" font-size="14.00">UsersService</text>
</g>
<!-- UsersService&#45;&gt;UsersModule -->
<g id="edge12" class="edge">
<title>UsersService&#45;&gt;UsersModule</title>
<path fill="none" stroke="black" d="M1148,-161.97C1148,-141.23 1148,-110 1148,-110 1148,-110 783.75,-110 783.75,-110"/>
<polygon fill="black" stroke="black" points="783.75,-106.5 773.75,-110 783.75,-113.5 783.75,-106.5"/>
</g>
</g>
</svg>
